<svg version="1.1" xmlns="http://www.w3.org/2000/svg" style="display: block;" viewBox="0 0 2048 1765" width="623" height="537" preserveAspectRatio="none">
<path transform="translate(0,0)" fill="rgb(255,255,255)" d="M 0 0 L 2048 0 L 2048 1765 L 0 1765 L 0 0 z"/>
<path transform="translate(0,0)" fill="rgb(0,0,0)" d="M 1007.1 101.874 C 1453.61 84.2279 1829.76 432.125 1846.97 878.649 C 1864.18 1325.17 1515.91 1700.99 1069.37 1717.76 C 623.452 1734.51 248.27 1386.83 231.085 940.924 C 213.9 495.019 561.21 119.496 1007.1 101.874 z"/>
<path transform="translate(0,0)" fill="rgb(255,255,255)" d="M 1012.91 117.337 C 1450.52 102.907 1817 445.935 1831.48 883.549 C 1845.97 1321.16 1502.99 1687.68 1065.38 1702.23 C 627.686 1716.78 261.085 1373.72 246.594 936.021 C 232.103 498.325 575.21 131.769 1012.91 117.337 z"/>
<path transform="translate(0,0)" fill="rgb(73,116,32)" d="M 1045.67 343.6 C 1127.06 387.349 1212.16 430.382 1294.3 472.908 L 1571.87 616.876 C 1559.12 634.314 1547.59 655.592 1535.78 673.884 C 1531.07 681.189 1525.64 691.3 1520.3 697.9 L 1175.73 528.841 C 1133.29 508.018 1086.88 486.51 1045.34 464.878 L 764.542 618.228 L 659.301 675.797 C 641.275 685.641 618.219 699.036 600.169 707.603 L 561.618 636.384 C 556.093 626.186 545.554 605.462 539.361 596.887 C 574.555 578.722 618.021 559.315 651.29 540.466 L 659.708 536.986 C 672.507 530.161 685.436 523.582 698.487 517.254 C 679.474 500.002 683.373 453.995 690.156 431.654 C 720.363 332.164 861.036 319.196 908.074 412.445 C 948.594 392.714 988.695 371.898 1029.09 351.898 C 1034.58 349.18 1040.06 346.02 1045.67 343.6 z"/>
<path transform="translate(0,0)" fill="rgb(254,242,0)" d="M 698.487 517.254 C 679.474 500.002 683.373 453.995 690.156 431.654 C 720.363 332.164 861.036 319.196 908.074 412.445 C 848.561 444.216 786.136 472.29 726.228 503.492 C 717.381 508.099 707.494 513.217 698.487 517.254 z"/>
<path transform="translate(0,0)" fill="rgb(112,169,57)" d="M 795.241 956.324 C 857.572 1022 877.101 1084.65 883.459 1173.13 C 891.352 1152 899.951 1131.14 909.242 1110.59 C 921.117 1084.96 930.232 1073 934.901 1044.25 C 938.12 1024.42 950.23 985.936 962.822 971.318 C 957.882 991.502 953.884 1019.05 948.752 1036.88 C 967.382 1011.03 989.794 977.971 1018.35 962.267 C 993.091 988.173 977.662 1009.58 958.588 1040.66 C 942.371 1062.71 939.855 1084.11 936.738 1110.57 C 934.119 1132.8 929.52 1157.14 930.366 1179.87 C 931.004 1197.02 931.897 1210.65 951.103 1197.63 C 941.597 1169.8 942.205 1110.46 949.14 1082.43 C 952.58 1118.4 958.486 1140.83 966.784 1175.18 C 972.962 1161.07 979.043 1145.93 981.598 1130.7 C 985.776 1105.8 985.563 1080.58 992.093 1056 C 998.415 1032.2 1005.97 1008.98 1014.84 986.022 C 1016.46 981.831 1018.59 976.927 1019.73 972.668 L 1024.12 975.614 C 1022.91 986.697 1035.9 1007.24 1039.67 1018.84 C 1048.93 1047.36 1066.97 1086.12 1071.07 1115.32 C 1080.49 1096.41 1096.65 1058.95 1109.74 1043.32 C 1097.08 1072.87 1085.16 1100.12 1074.63 1130.67 C 1078.26 1139.54 1079.22 1150.09 1081.3 1159.47 C 1087.69 1188.18 1089.51 1216.42 1098.44 1244.53 C 1099.31 1231.56 1099.13 1216.84 1100.75 1204.41 C 1107.66 1151.36 1134.53 1085.58 1159.42 1038.13 L 1160.45 1037.47 C 1145.08 1086.01 1125.28 1158.81 1143.69 1208.66 C 1144.13 1196.96 1143.17 1184.76 1143.49 1172.65 C 1144.83 1122.08 1153.21 1082.63 1174.81 1037.26 C 1172.37 1061.41 1159.75 1158.91 1165.86 1176.04 L 1167.39 1177.15 C 1177.15 1173.24 1206.75 1064.59 1211.07 1047.29 C 1212.48 1041.64 1198.88 989.499 1201.8 979.473 L 1203.51 979.366 C 1208.47 987.6 1215.1 1020.82 1217.3 1031.02 C 1226.2 1010.16 1228.62 996.889 1239.41 974.771 C 1243.31 974.47 1247.2 974.135 1251.08 973.768 C 1246.29 990.809 1238.2 1007.76 1234.34 1024.26 C 1233.69 1027.04 1236.56 1050.2 1237.03 1054.64 C 1238.38 1068.35 1239.49 1082.08 1240.36 1095.82 C 1241.97 1121.93 1239.45 1143.09 1245.24 1168.88 C 1262.72 1130.28 1281.11 1096.83 1304.69 1061.6 C 1313.9 1047.84 1321.64 1032.94 1332.26 1020.11 C 1320.57 1045.1 1262.34 1159.1 1268.11 1179.26 C 1278.25 1185.72 1299.81 1143.34 1304.51 1136.17 C 1316.98 1117.14 1326.34 1105.4 1346.66 1094.73 C 1325.49 1121.87 1300.79 1159.25 1293.22 1192.93 C 1312.9 1171.01 1347.71 1132.45 1370.7 1114.88 L 1372.41 1118.35 C 1355.79 1135.68 1341.06 1154.74 1328.48 1175.2 C 1299.99 1221.02 1286.23 1270.02 1298.76 1323.75 L 796.122 1326.97 C 803.838 1250.54 779.231 1182.11 746.508 1114.05 C 740.259 1101.05 732.726 1089.09 726.211 1076.19 C 755.978 1102.34 791.397 1161.56 816.698 1195.89 C 810.409 1158.34 805.949 1128.68 787.668 1094.07 L 789.744 1090.11 C 802.79 1107.53 816.107 1127.95 826.148 1147.36 C 828.245 1151.41 829.099 1155.75 832.572 1158.91 L 835.009 1158.66 C 839.78 1154.85 844.603 1145.41 845.867 1139.71 C 858.29 1083.68 822.366 1005.83 793.974 959.134 L 795.241 956.324 z"/>
<path transform="translate(0,0)" fill="rgb(100,157,52)" d="M 1039.08 1054.61 C 1039.91 1056.64 1042.27 1066.15 1042.79 1068.99 C 1046.54 1092.11 1057.57 1123.96 1055.17 1146.98 C 1053.18 1165.98 1038.6 1199.46 1028.37 1215.59 L 1026.08 1218.59 L 1024.17 1218.8 C 1005.22 1200.92 1029.21 1079.45 1039.08 1054.61 z"/>
<path transform="translate(0,0)" fill="rgb(0,0,0)" d="M 1164.94 1273.51 C 1164.98 1269.91 1164.6 1260.63 1165.99 1258.04 C 1169.7 1257.2 1170.08 1257.28 1173.93 1257.52 L 1174.91 1258.5 C 1174.89 1264.73 1173.88 1284.73 1177.03 1288.36 C 1181.02 1286.31 1180.41 1280.61 1180.7 1276.35 C 1186.67 1276.12 1198.68 1275.39 1203.95 1276.87 C 1205.16 1276.88 1208.78 1276.35 1210.18 1276.19 C 1212.85 1275.9 1216.29 1275.64 1218.88 1275.22 L 1223.61 1272.05 L 1224.39 1271.9 C 1229.46 1272.34 1236.25 1271.57 1239.52 1275.8 C 1244.12 1276.02 1244.97 1275.32 1248.44 1277.65 C 1250.75 1281.88 1249.18 1288.28 1248.74 1293.8 C 1243.02 1294.26 1227.52 1295.01 1221.95 1294.4 C 1211.38 1293.23 1171.96 1296.96 1165.28 1292.12 L 1161.37 1294.64 C 1161 1288.63 1161.09 1282.26 1161.08 1276.21 L 1164.94 1273.51 z"/>
<path transform="translate(0,0)" fill="rgb(100,157,52)" d="M 1223.61 1272.05 L 1224.39 1271.9 C 1229.46 1272.34 1236.25 1271.57 1239.52 1275.8 C 1239.06 1280.73 1239.51 1284.01 1237.42 1288.38 C 1235.59 1287.29 1232.99 1279.02 1231.58 1275.98 C 1228.77 1275.74 1227.5 1275.32 1225.08 1276.72 C 1224.57 1280.17 1223.68 1286.25 1221.32 1288.67 C 1219.28 1283.99 1220.75 1280.23 1218.88 1275.22 L 1223.61 1272.05 z"/>
<path transform="translate(0,0)" fill="rgb(100,157,52)" d="M 1161.08 1276.21 L 1164.94 1273.51 L 1165.28 1292.12 L 1161.37 1294.64 C 1161 1288.63 1161.09 1282.26 1161.08 1276.21 z"/>
<path transform="translate(0,0)" fill="rgb(100,157,52)" d="M 1203.95 1276.87 C 1205.16 1276.88 1208.78 1276.35 1210.18 1276.19 C 1210.1 1280.5 1210.58 1283.87 1208.32 1287.35 L 1206.62 1287.93 C 1203.9 1285.08 1204.16 1280.86 1203.95 1276.87 z"/>
<path transform="translate(0,0)" fill="rgb(0,0,0)" d="M 982.381 1261.73 C 984.8 1259.4 983.315 1260.18 987.329 1260.05 C 990.447 1260.14 991.826 1260.06 994.899 1260.89 C 998.398 1264.98 997.527 1265.94 996.288 1271.13 L 997.533 1272.66 L 999.72 1272.81 C 1002.88 1267.82 996.649 1262.31 1004.03 1260.16 C 1009.31 1264.01 1007.78 1275.09 1004.28 1279.86 C 997.072 1282.85 987.067 1277.32 981.636 1282.97 C 981.738 1288.52 983.167 1289.12 981.115 1293.13 C 978.509 1294.91 975.47 1294.41 972.209 1294.35 L 967.946 1294.71 C 964.156 1295.05 963.155 1295.38 959.617 1294.32 C 956.05 1289.98 960.267 1287.43 958.319 1283.07 C 956.306 1278.57 951.946 1282.91 946.019 1279.92 C 943.855 1277.29 944.191 1276.11 943.869 1272.92 C 942.125 1255.64 955.146 1259.79 967.567 1261.02 L 972.274 1260.83 C 975.93 1260.35 979.313 1259.36 982.381 1261.73 z"/>
<path transform="translate(0,0)" fill="rgb(0,0,0)" d="M 967.946 1294.71 C 964.156 1295.05 963.155 1295.38 959.617 1294.32 C 956.05 1289.98 960.267 1287.43 958.319 1283.07 C 956.306 1278.57 951.946 1282.91 946.019 1279.92 C 943.855 1277.29 944.191 1276.11 943.869 1272.92 C 942.125 1255.64 955.146 1259.79 967.567 1261.02 L 972.274 1260.83 L 972.209 1294.35 L 967.946 1294.71 z"/>
<path transform="translate(0,0)" fill="rgb(100,157,52)" d="M 967.567 1261.02 L 972.274 1260.83 L 972.209 1294.35 L 967.946 1294.71 C 968.934 1285 968.763 1270.73 967.567 1261.02 z"/>
<path transform="translate(0,0)" fill="rgb(100,157,52)" d="M 982.381 1261.73 C 984.8 1259.4 983.315 1260.18 987.329 1260.05 C 987.413 1264.77 988.001 1268.3 985.79 1272.33 L 984.148 1273.32 C 981.092 1269.55 981.999 1266.9 982.381 1261.73 z"/>
<path transform="translate(0,0)" fill="rgb(0,0,0)" d="M 1060.02 1288.13 C 1060.06 1284.32 1059.41 1279.07 1061.13 1276.39 C 1075.27 1273 1067.09 1283.19 1071.49 1288.15 L 1073.38 1287.94 C 1075.77 1283.99 1073.8 1281.28 1075.65 1276.62 C 1078.25 1275.5 1079.48 1275.83 1082.29 1276.02 C 1088.13 1280.04 1082.7 1282.33 1086.43 1287.75 C 1089.5 1288.78 1089.27 1288.75 1092.45 1288.11 C 1094.68 1284.9 1093.99 1283.27 1094.15 1278.83 L 1094.29 1277.43 C 1096.2 1275.5 1096.33 1275.73 1099.02 1275.02 C 1106.26 1277.46 1104.23 1287.56 1103.88 1293.87 C 1102.5 1294.01 1101.13 1294.13 1099.75 1294.23 C 1081.11 1295.54 1058.16 1294.13 1039.13 1294.53 C 1036.52 1294.58 1035.52 1293.7 1033.69 1292.12 C 1030.98 1286.3 1032.18 1281.84 1033.41 1275.77 C 1036.77 1275.69 1037.84 1275.42 1040.91 1276.87 C 1042.87 1279.68 1042.25 1284.52 1042.21 1288.21 L 1060.02 1288.13 z"/>
<path transform="translate(0,0)" fill="rgb(0,0,0)" d="M 888.995 1280.91 C 889.419 1286.9 890.797 1299.2 879.699 1293.62 C 878.6 1286.92 879.156 1267.98 880.096 1261.08 C 882.433 1258.85 883.934 1258.62 886.667 1259.81 C 889.046 1263.09 889.285 1268.81 890.122 1273.29 L 891.501 1274.05 C 898.451 1268.12 892.35 1267.41 894.911 1261.89 C 898.564 1259.58 898.983 1260.27 903.635 1260.04 L 905.877 1260.7 L 911.178 1260.47 C 916.104 1264.41 915.376 1274.37 911.758 1279.28 C 907.411 1280.96 894.253 1280.73 888.995 1280.91 z"/>
<path transform="translate(0,0)" fill="rgb(73,116,32)" d="M 903.635 1260.04 L 905.877 1260.7 C 906.349 1265.05 907.106 1268.5 905.165 1272.31 L 903.881 1271.83 C 902.361 1267.75 903.176 1264.46 903.635 1260.04 z"/>
<path transform="translate(0,0)" fill="rgb(100,157,52)" d="M 1214.01 1085.33 C 1216.58 1087.39 1216.45 1090.57 1216.31 1093.67 C 1215.39 1113.82 1208.51 1157.56 1194.99 1171.46 L 1193.38 1169.73 C 1190.43 1159.39 1209.33 1098.95 1214.01 1085.33 z"/>
<path transform="translate(0,0)" fill="rgb(0,0,0)" d="M 843.193 1260.35 C 848.022 1260.31 848.709 1259.5 851.851 1261.77 C 854.076 1267.16 851.816 1268.46 853.166 1273.03 L 854.721 1273.42 C 855.453 1270.08 856.538 1264.54 858.438 1261.82 C 861.797 1257.01 869.925 1258.93 873.34 1262.67 C 872.248 1265.77 868.935 1267.2 865.666 1269.95 L 865.638 1271.84 C 868.258 1274.19 871.911 1274.04 875.558 1274.43 C 875.705 1278.41 876.259 1277.3 874.243 1279.83 C 868.047 1282.03 859.793 1280.99 852.98 1280.74 C 853.096 1285.72 853.988 1289.59 851.631 1293.39 C 848.375 1294.61 848.058 1294.5 844.501 1294.46 C 841.373 1290.42 843.021 1267.49 843.193 1260.35 z"/>
<path transform="translate(0,0)" fill="rgb(0,0,0)" d="M 1119.3 1276.07 C 1126.61 1275.98 1133.92 1276.05 1141.23 1276.25 C 1141.77 1281.09 1143.16 1289.88 1140.75 1293.97 C 1133.57 1294.55 1123.7 1296.92 1118.55 1291.21 C 1116.5 1286.29 1117.99 1281.15 1119.3 1276.07 z"/>
<path transform="translate(0,0)" fill="rgb(0,0,0)" d="M 918.769 1260.42 C 926.526 1260.12 931.038 1260.25 938.786 1260.87 C 939.087 1269.64 942.061 1289.56 936.565 1295.85 C 934.813 1295.35 933.134 1294.8 931.4 1294.25 C 927.74 1289.74 929.493 1274.12 929.618 1267.44 C 925.631 1267.6 921.93 1268.31 918.665 1266.4 C 917.518 1263.12 917.801 1264.3 918.769 1260.42 z"/>
<path transform="translate(0,0)" fill="rgb(0,0,0)" d="M 1161.37 1294.64 C 1161.52 1299.16 1162.38 1303.26 1157.89 1305.79 C 1153.16 1308.46 1148.68 1309.01 1145.53 1303.9 C 1146.65 1299.74 1150.97 1299.45 1151.52 1297.83 C 1153.79 1291.13 1148.76 1283.51 1152.79 1277.23 C 1155.56 1275.31 1157.63 1275.94 1161.08 1276.21 C 1161.09 1282.26 1161 1288.63 1161.37 1294.64 z"/>
<path transform="translate(0,0)" fill="rgb(100,157,52)" d="M 919.399 1121.86 L 920.056 1122.29 C 920.531 1127.92 909.668 1178.87 907.341 1185.04 C 906.472 1184.48 906.368 1184.02 905.72 1183.04 C 905.668 1165.9 910.323 1136.45 919.399 1121.86 z"/>
<path transform="translate(0,0)" fill="rgb(0,0,0)" d="M 1223.61 1272.05 C 1221.63 1268.68 1221.3 1269.38 1221.64 1266.26 C 1223.17 1265.23 1224.6 1264.2 1225.91 1262.88 C 1226.06 1258.09 1225.17 1257.81 1227.65 1255.45 C 1231.69 1255.26 1230.06 1254.65 1232.92 1256.55 L 1233.02 1259.01 C 1231.31 1260.83 1229.57 1262.51 1228.18 1264.57 C 1231.27 1264.78 1232.04 1264.49 1234.98 1263.85 C 1237.71 1265.65 1236.57 1264.44 1237.83 1268.13 C 1235.15 1272.82 1229.29 1270.85 1224.39 1271.9 L 1223.61 1272.05 z"/>
<path transform="translate(0,0)" fill="rgb(0,0,0)" d="M 1043.32 1263.83 C 1048.18 1264.15 1054.82 1262.79 1058.13 1265.53 C 1059.04 1268.24 1058.4 1269.33 1057.6 1272.09 C 1050.77 1270.5 1050.61 1272.11 1044.83 1271.04 C 1042.4 1268.22 1043.23 1268.78 1043.32 1263.83 z"/>
<path transform="translate(0,0)" fill="rgb(0,0,0)" d="M 1090.96 1263.86 C 1097.32 1264.84 1100.62 1263.63 1105.37 1264.92 C 1107.26 1267.83 1106.54 1267.33 1105.96 1271.86 C 1099.33 1270.48 1098.63 1272.45 1092.71 1270.76 C 1090.38 1267.64 1091.12 1268.54 1090.96 1263.86 z"/>
<path transform="translate(0,0)" fill="rgb(163,209,119)" d="M 1009.6 599.121 C 1012.19 601.747 1011.52 631.16 1011.59 637.61 L 1012.35 704.893 C 1013.41 768.937 1014.01 832.988 1014.17 897.041 C 961.233 894.311 898.838 895.194 845.155 894.671 C 843.095 894.528 843.838 894.697 841.981 893.768 C 841.85 893.412 841.285 892.09 841.252 891.786 C 829.743 784.867 859.543 657.603 969.397 612.676 C 985.543 606.073 995.834 603.247 1009.6 599.121 z"/>
<path transform="translate(0,0)" fill="rgb(38,55,20)" d="M 1069.84 599.302 C 1078.96 601.819 1087.78 604.365 1096.69 607.552 C 1145.33 625.177 1184.85 661.6 1206.38 708.641 C 1228.77 756.519 1235.36 807.621 1234.16 859.985 C 1233.99 867.624 1233.95 886.86 1231.5 893.547 L 1229.25 894.288 L 1065.74 896.657 C 1065.94 816.449 1068.87 736.309 1068.97 656.092 C 1069 637.316 1069.01 618.028 1069.84 599.302 z"/>
<path transform="translate(0,0)" fill="rgb(73,116,32)" d="M 1348.49 1182.54 C 1378.92 1183.88 1418.11 1182.81 1449.38 1182.82 L 1449.55 1314.59 L 1419.25 1314.61 C 1386.39 1314.67 1350.11 1315.51 1317.52 1314.47 C 1310.83 1274.3 1316.58 1245.37 1334.23 1208.64 C 1338.47 1199.81 1343.97 1191.41 1348.49 1182.54 z"/>
<path transform="translate(0,0)" fill="rgb(73,116,32)" d="M 1067.61 920.892 C 1121.66 921.777 1177.92 921.003 1232.17 920.924 L 1232.18 954.862 C 1228.4 955.338 1227.24 955.368 1223.73 956.669 L 1222.17 960.305 L 1220.83 960.42 C 1220 958.374 1220.09 958.237 1218.65 956.62 C 1205.29 956.863 1188.81 958.861 1175.27 960.174 C 1179.82 984.966 1183.97 1009.83 1187.71 1034.76 L 1187.52 1036.19 C 1182.16 1037.2 1150.7 1023.68 1143.73 1020.77 C 1138.6 1030.77 1134.07 1040.98 1128.69 1051.28 C 1119.88 1044.29 1104.47 1034.04 1094.82 1027.88 C 1088.28 1035.71 1080.19 1049.47 1075.55 1058.5 C 1073.77 1049.7 1069.61 1041.31 1068.14 1032.54 C 1067.1 1026.34 1071.35 1026.22 1068.7 1018.4 C 1065.44 1008.78 1067.57 936.884 1067.61 920.892 z"/>
<path transform="translate(0,0)" fill="rgb(73,116,32)" d="M 661.657 1182.54 C 690.393 1183.28 724.739 1183.16 753.433 1182.54 C 755.126 1190.08 761.147 1206.52 763.582 1215.24 C 773.52 1250.86 777.672 1277.89 776.604 1314.65 L 661.634 1314.75 L 661.657 1182.54 z"/>
<path transform="translate(0,0)" fill="rgb(100,157,52)" d="M 844.086 920.499 C 896.817 921.874 955.059 920.671 1008.17 920.815 L 1008.27 943.951 C 994.631 951.06 983.227 961.626 972.263 972.262 C 964.513 967.51 954.602 962.84 946.306 958.052 C 937.384 969.1 932.492 981.111 926.919 993.976 C 918.49 1015.17 914.687 1038.88 908.673 1060.64 C 906.084 1070 898.748 1083.68 894.343 1092.95 C 887.879 1068.93 880.345 1049.02 870.443 1026.43 C 865.617 1015.42 845.828 986.727 844.872 979.461 C 843.11 966.081 844.009 935.187 844.086 920.499 z"/>
<path transform="translate(0,0)" fill="rgb(73,116,32)" d="M 1070.1 1375.05 C 1074.14 1375.02 1083.56 1374.5 1086.81 1375.94 L 1087.56 1378.13 C 1085.2 1386.15 1071.15 1395.24 1064.36 1399.65 C 1076.68 1398.97 1101.02 1398.77 1112.73 1400.12 C 1113.09 1410.49 1112.83 1422.4 1112.84 1432.89 C 1049.95 1431.96 983.188 1432.39 920.221 1432.9 L 919.919 1444.35 C 911.888 1444.49 897.273 1446.49 891.674 1441.95 C 890.537 1438.65 890.388 1440.13 891.457 1437.35 C 895.025 1435.38 899.802 1435.88 904.098 1435.84 C 904.016 1423.62 904.094 1411.4 904.331 1399.19 C 909.312 1399 914.93 1399.22 919.975 1399.32 C 920.023 1405.83 918.192 1419.84 922.912 1423.98 C 926.923 1424.78 925.022 1424.92 928.837 1423.64 C 933.397 1418.5 931.565 1407.74 931.929 1399.4 C 937.013 1399.09 941.426 1398.2 945.713 1400.51 C 950.169 1405.4 948.296 1416.12 948.429 1424.3 L 960.849 1424.8 C 960.879 1416.27 960.983 1407.74 961.159 1399.21 C 966.939 1399.03 971.854 1398.55 977.462 1399.99 C 980.284 1400.47 980.858 1400.85 983.536 1399.87 C 988.218 1398.86 995.225 1398.33 999.761 1400.12 C 1001.33 1400.1 1004.61 1400.15 1006.02 1399.96 C 1010.27 1398.42 1017.64 1399.11 1022.37 1399.26 L 1022.79 1424.33 C 1040.72 1425.02 1059.05 1424.57 1077.01 1424.89 C 1082.78 1424.99 1093.43 1425.44 1097.07 1420.49 C 1096.75 1417.97 1097.06 1419.2 1095.13 1416.89 C 1089.27 1414.97 1040.49 1415.92 1031.41 1415.9 C 1031.02 1410.64 1031.26 1404.82 1031.33 1399.5 C 1051.3 1399.18 1060.53 1392 1070.1 1375.05 z"/>
<path transform="translate(0,0)" fill="rgb(247,253,238)" d="M 999.761 1400.12 C 1001.33 1400.1 1004.61 1400.15 1006.02 1399.96 C 1006.12 1405.63 1007.42 1420.69 1002.81 1424.31 C 998.626 1420.18 999.682 1406.05 999.761 1400.12 z"/>
<path transform="translate(0,0)" fill="rgb(247,253,238)" d="M 977.462 1399.99 C 980.284 1400.47 980.858 1400.85 983.536 1399.87 C 982.47 1409.98 984.724 1412.74 980.925 1424.17 L 979.859 1423.67 C 977.2 1413.4 977.92 1410.41 977.462 1399.99 z"/>
<path transform="translate(0,0)" fill="rgb(73,116,32)" d="M 1132.42 1444.19 C 1132.25 1436.43 1130.57 1403.43 1134.42 1399.84 C 1139.61 1398.39 1143.65 1399.06 1149.04 1399.42 L 1149.11 1436.57 C 1156.01 1436.44 1163.23 1436.57 1170.16 1436.58 L 1170.21 1399.24 C 1175.74 1399.07 1180.85 1398.62 1186.26 1399.79 C 1188.49 1399.98 1190.5 1400.31 1192.69 1399.93 C 1197.68 1398.77 1204.13 1398.45 1209.04 1400.09 C 1212.17 1400.68 1212.02 1400.75 1215.31 1399.9 C 1219.9 1398.47 1226.67 1399.11 1231.7 1399.28 C 1231.76 1407.86 1231.79 1415.73 1231.38 1424.32 C 1235.36 1424.54 1238.24 1425.2 1241.6 1423.33 C 1246.55 1417.46 1243.53 1408.53 1244.22 1399.18 C 1249.43 1399.08 1255.69 1398.65 1260.68 1399.83 L 1266.71 1399.59 C 1280.19 1399.05 1293.68 1399.19 1307.15 1400.02 C 1307.46 1410.92 1307.56 1421.83 1307.42 1432.73 C 1294.3 1432.84 1278.69 1433.33 1265.8 1432.49 C 1263.57 1434.67 1262.98 1434.99 1261.97 1438.01 C 1263.68 1439.94 1264.15 1442.69 1263.18 1445.09 C 1262.21 1447.49 1259.97 1449.13 1257.39 1449.33 C 1254.81 1449.53 1252.34 1448.25 1251.01 1446.03 L 1246.94 1445.92 C 1243.56 1449.39 1240.5 1450.31 1236.29 1447.73 C 1231.87 1442.02 1235.03 1438.85 1239.67 1434.97 C 1237.64 1433.13 1234.7 1433.05 1231.85 1432.56 C 1218.59 1433.17 1200.82 1432.65 1187.07 1432.82 L 1187 1444.26 C 1170.23 1444.97 1149.08 1444.75 1132.42 1444.19 z"/>
<path transform="translate(0,0)" fill="rgb(73,116,32)" d="M 1266.71 1399.59 C 1280.19 1399.05 1293.68 1399.19 1307.15 1400.02 C 1307.46 1410.92 1307.56 1421.83 1307.42 1432.73 C 1294.3 1432.84 1278.69 1433.33 1265.8 1432.49 C 1263.57 1434.67 1262.98 1434.99 1261.97 1438.01 C 1261.34 1437.3 1260.58 1436.74 1259.72 1436.34 L 1260.87 1430.98 L 1261.07 1430.39 C 1264.46 1424.48 1258.84 1416.75 1265.99 1415.35 C 1266.27 1414.19 1266.62 1401.81 1266.71 1399.59 z"/>
<path transform="translate(0,0)" fill="rgb(247,253,238)" d="M 1261.07 1430.39 C 1264.46 1424.48 1258.84 1416.75 1265.99 1415.35 C 1270.91 1416.02 1287.75 1415.44 1290.16 1416.94 C 1290.5 1420.11 1290.85 1420.93 1289.3 1423.73 C 1283.41 1427.84 1266.87 1418.82 1266.09 1429.42 C 1266 1430.45 1265.9 1431.47 1265.8 1432.49 C 1263.57 1434.67 1262.98 1434.99 1261.97 1438.01 C 1261.34 1437.3 1260.58 1436.74 1259.72 1436.34 L 1260.87 1430.98 L 1261.07 1430.39 z"/>
<path transform="translate(0,0)" fill="rgb(242,251,222)" d="M 1231.85 1432.56 C 1240.87 1431.71 1252.56 1432.92 1260.87 1430.98 L 1259.72 1436.34 C 1260.58 1436.74 1261.34 1437.3 1261.97 1438.01 C 1263.68 1439.94 1264.15 1442.69 1263.18 1445.09 C 1262.21 1447.49 1259.97 1449.13 1257.39 1449.33 C 1254.81 1449.53 1252.34 1448.25 1251.01 1446.03 L 1246.94 1445.92 C 1243.56 1449.39 1240.5 1450.31 1236.29 1447.73 C 1231.87 1442.02 1235.03 1438.85 1239.67 1434.97 C 1237.64 1433.13 1234.7 1433.05 1231.85 1432.56 z"/>
<path transform="translate(0,0)" fill="rgb(66,108,17)" d="M 1251.01 1446.03 C 1249.48 1443.46 1249.79 1440.19 1251.79 1437.97 C 1253.79 1435.75 1257.01 1435.09 1259.72 1436.34 C 1260.58 1436.74 1261.34 1437.3 1261.97 1438.01 C 1263.68 1439.94 1264.15 1442.69 1263.18 1445.09 C 1262.21 1447.49 1259.97 1449.13 1257.39 1449.33 C 1254.81 1449.53 1252.34 1448.25 1251.01 1446.03 z"/>
<path transform="translate(0,0)" fill="rgb(66,108,17)" d="M 1239.67 1434.97 C 1245.73 1436.31 1246.52 1440.04 1246.94 1445.92 C 1243.56 1449.39 1240.5 1450.31 1236.29 1447.73 C 1231.87 1442.02 1235.03 1438.85 1239.67 1434.97 z"/>
<path transform="translate(0,0)" fill="rgb(247,253,238)" d="M 1209.04 1400.09 C 1212.17 1400.68 1212.02 1400.75 1215.31 1399.9 C 1215.4 1408.58 1216.19 1416.42 1212.77 1424.45 L 1211.45 1424.92 C 1207.77 1419.23 1208.82 1407.02 1209.04 1400.09 z"/>
<path transform="translate(0,0)" fill="rgb(242,251,222)" d="M 1186.26 1399.79 C 1188.49 1399.98 1190.5 1400.31 1192.69 1399.93 C 1192.35 1405.82 1193.39 1420.72 1189.16 1424.78 C 1185.34 1420.51 1186.18 1405.79 1186.26 1399.79 z"/>
<path transform="translate(0,0)" fill="rgb(242,251,222)" d="M 1260.68 1399.83 L 1266.71 1399.59 C 1266.62 1401.81 1266.27 1414.19 1265.99 1415.35 C 1258.84 1416.75 1264.46 1424.48 1261.07 1430.39 C 1260.62 1420.89 1260.78 1409.49 1260.68 1399.83 z"/>
<path transform="translate(0,0)" fill="rgb(73,116,32)" d="M 793.688 1399.09 L 810.08 1399.27 L 810.262 1423.92 C 816.342 1424.35 844.938 1426.07 848.619 1422.93 C 848.877 1418.67 849.403 1420.5 847.547 1417.13 C 839.017 1412.41 824.728 1421.24 822.136 1409.69 C 821.236 1405.68 821.053 1404.43 822.334 1400.67 C 822.897 1400.2 823.46 1399.74 824.023 1399.28 C 833.881 1399.47 853.089 1398.79 861.844 1399.66 C 863.101 1399.79 864.355 1399.94 865.606 1400.11 C 865.713 1405.23 865.231 1419.89 866.439 1423.76 C 868.218 1424.91 869.142 1425.38 871.047 1426.32 C 871.778 1428.72 871.637 1428.59 870.854 1431.02 C 863.622 1433.51 829.227 1432.56 819.14 1432.74 C 815.472 1433.27 813.475 1432.88 811.213 1435.08 C 815.32 1439.57 817.827 1442.89 812.923 1448.24 C 809.078 1449.63 807.04 1449.14 803.644 1446.93 L 799.62 1445.95 C 795.784 1449.2 794.683 1449.63 789.73 1448.27 C 785.25 1442.86 786.993 1439.81 791.169 1435.12 L 788.326 1432.67 L 752.948 1432.81 L 752.66 1444.42 C 744.827 1444.6 722.363 1446.22 716.544 1442.8 C 715.822 1440.29 715.926 1440.37 716.147 1437.73 C 715.87 1433.14 716.192 1433.05 711.788 1431.96 C 711.028 1428.18 710.886 1405.27 710.785 1399.98 L 713.992 1401.36 L 716.771 1400.18 C 723.228 1397.94 745.154 1399.23 752.721 1399.58 L 752.911 1424.52 C 756.57 1424.41 760.524 1424.38 764.149 1424.12 C 764.223 1416.37 764.044 1406.8 764.478 1399.22 C 769.738 1399.26 776.05 1399.16 781.187 1399.55 C 781.081 1408.04 777.821 1422.13 786.983 1424.7 C 796.926 1422.41 792.719 1408.16 793.688 1399.09 z"/>
<path transform="translate(0,0)" fill="rgb(242,251,222)" d="M 788.326 1432.67 C 795.581 1431.36 811.755 1432.05 819.14 1432.74 C 815.472 1433.27 813.475 1432.88 811.213 1435.08 C 815.32 1439.57 817.827 1442.89 812.923 1448.24 C 809.078 1449.63 807.04 1449.14 803.644 1446.93 L 799.62 1445.95 C 795.784 1449.2 794.683 1449.63 789.73 1448.27 C 785.25 1442.86 786.993 1439.81 791.169 1435.12 L 788.326 1432.67 z"/>
<path transform="translate(0,0)" fill="rgb(66,108,17)" d="M 803.644 1446.93 C 802.647 1440.85 804.235 1435.26 811.213 1435.08 C 815.32 1439.57 817.827 1442.89 812.923 1448.24 C 809.078 1449.63 807.04 1449.14 803.644 1446.93 z"/>
<path transform="translate(0,0)" fill="rgb(66,108,17)" d="M 791.169 1435.12 C 798.417 1436.53 798.606 1438.77 799.62 1445.95 C 795.784 1449.2 794.683 1449.63 789.73 1448.27 C 785.25 1442.86 786.993 1439.81 791.169 1435.12 z"/>
<path transform="translate(0,0)" fill="rgb(247,253,238)" d="M 710.785 1399.98 L 713.992 1401.36 L 716.771 1400.18 C 716.729 1410.47 716.911 1421.7 716.601 1431.91 L 719.303 1435.43 L 717.369 1437.14 L 716.147 1437.73 C 715.87 1433.14 716.192 1433.05 711.788 1431.96 C 711.028 1428.18 710.886 1405.27 710.785 1399.98 z"/>
<path transform="translate(0,0)" fill="rgb(242,251,222)" d="M 716.601 1431.91 C 723.076 1431.81 728.957 1431.28 735.086 1433.32 L 735.898 1434.4 C 729.23 1438.49 724.164 1436.52 717.369 1437.14 L 719.303 1435.43 L 716.601 1431.91 z"/>
<path transform="translate(0,0)" fill="rgb(242,251,222)" d="M 732.569 1404.17 C 740.193 1407.34 737.066 1418.55 736.167 1425.8 C 728.64 1423.01 731.497 1410.9 732.569 1404.17 z"/>
<path transform="translate(0,0)" fill="rgb(254,242,0)" d="M 652.686 323.99 C 671.639 332.468 691.086 352.1 700.433 370.874 C 694.968 367.793 681.502 357.59 675.573 359.262 C 672.394 364.597 677.987 374.788 677.695 383.565 C 674.975 387.575 655.535 393.011 648.589 396.074 C 653.271 400.202 667.508 407.971 669.218 412.107 L 667.126 412.715 C 657.588 411.854 609.9 396.95 614.089 386.853 C 625.344 378.748 662.495 382.957 676.809 385.257 C 667.364 369.116 650.834 343.397 652.686 323.99 z"/>
<path transform="translate(0,0)" fill="rgb(73,116,32)" d="M 785.001 1482.92 C 788.647 1482.98 791.205 1482.55 793.474 1484.65 C 794.108 1490.61 793.948 1539.97 792.785 1544.5 C 785.155 1549.01 788.652 1536.89 780.646 1541.96 C 774.42 1545.9 771.958 1545.63 764.836 1544.86 C 744.312 1530.88 755.605 1488.1 785.023 1505.38 L 785.001 1482.92 z"/>
<path transform="translate(0,0)" fill="rgb(255,255,255)" d="M 772.145 1506.85 C 787.221 1508.04 787.637 1517.54 784.466 1530.88 C 783.132 1536.49 779.99 1537.57 775.146 1540.11 C 758.858 1539.01 757.737 1513.94 772.145 1506.85 z"/>
<path transform="translate(0,0)" fill="rgb(66,108,17)" d="M 1411.06 1504.55 C 1413.88 1498.3 1410.19 1488.92 1412.79 1483.64 C 1415.84 1482.67 1415.91 1482.9 1418.95 1483.53 C 1421.21 1487.37 1420.77 1538.98 1418.16 1544.26 L 1416.38 1545.03 C 1413.27 1543.55 1413.5 1543.2 1411.8 1539.25 C 1375.03 1570.35 1368.55 1482.52 1411.06 1504.55 z"/>
<path transform="translate(0,0)" fill="rgb(255,255,255)" d="M 1408.93 1536.36 C 1384.2 1551.04 1380.16 1500.84 1408.23 1508.47 C 1410.7 1510.34 1411.9 1510.92 1412.08 1514.38 C 1412.44 1521.01 1414 1531.33 1408.93 1536.36 z"/>
<path transform="translate(0,0)" fill="rgb(66,108,17)" d="M 635.213 1500.27 C 641.772 1502.27 639.196 1502.57 643.289 1506.35 C 644.9 1507.84 653.212 1499.15 658.296 1500.3 C 664.803 1501.76 667.977 1506.13 671.716 1510.94 C 673.383 1526 674.944 1535.57 661.078 1544.7 C 652.419 1545.7 650.523 1545.43 642.923 1542 C 643.076 1546.6 644.144 1556.17 641.376 1559.42 C 637.472 1559.42 637.738 1560.07 635.163 1558.25 C 634.092 1549.32 634.264 1509.5 635.213 1500.27 z"/>
<path transform="translate(0,0)" fill="rgb(255,255,255)" d="M 652.463 1506.94 C 669.917 1508.09 668.713 1532.11 656.217 1539.93 C 639.741 1541.28 640.475 1525.21 644.038 1513.5 C 645.27 1509.45 648.794 1508.48 652.463 1506.94 z"/>
<path transform="translate(0,0)" fill="rgb(73,116,32)" d="M 1326.78 1399.36 C 1332.03 1398.89 1336.88 1399.14 1342.15 1399.3 C 1342.84 1406.48 1342.48 1416.79 1342.43 1424.21 C 1349.36 1424.5 1356.16 1424.31 1363.08 1424.19 L 1363.35 1399.44 C 1368.97 1398.93 1374.77 1399.14 1380.43 1399.19 C 1380.58 1404.88 1381.59 1428.46 1379.72 1432.01 C 1367.28 1432.11 1354.84 1432.42 1342.4 1432.93 L 1342.07 1444.38 C 1337.35 1444.37 1306.37 1448.44 1313.35 1437.53 C 1317.18 1435.38 1321.97 1435.64 1326.53 1435.38 C 1326.45 1423.37 1326.25 1411.37 1326.78 1399.36 z"/>
<path transform="translate(0,0)" fill="rgb(66,108,17)" d="M 1298.95 1501.12 C 1331.21 1499.27 1334 1535.98 1311.26 1544.9 C 1300.84 1545.79 1293.05 1545.43 1286.93 1535.24 C 1283.56 1529.53 1282.76 1522.67 1284.71 1516.34 C 1287.15 1508.48 1291.93 1504.56 1298.95 1501.12 z"/>
<path transform="translate(0,0)" fill="rgb(255,255,255)" d="M 1300.74 1506.87 C 1314.79 1507.55 1319.45 1514.24 1316.71 1529.17 C 1315.68 1534.79 1312.95 1537.29 1308.07 1540.07 C 1288.33 1540.15 1287.85 1516.1 1300.74 1506.87 z"/>
<path transform="translate(0,0)" fill="rgb(66,108,17)" d="M 934.628 1501.32 C 937.86 1501.09 943.573 1500.52 946.487 1501.54 C 967.264 1508.81 968.436 1535.84 948.24 1544.73 C 915.865 1548.1 911.375 1513.9 934.628 1501.32 z"/>
<path transform="translate(0,0)" fill="rgb(255,255,255)" d="M 938.245 1506.98 C 940.109 1506.97 941.97 1507.14 943.802 1507.49 C 957.914 1510.18 958.353 1531.42 944.114 1539.93 C 926.886 1541.79 922.055 1515.32 938.245 1506.98 z"/>
<path transform="translate(0,0)" fill="rgb(66,108,17)" d="M 1348 1501.16 C 1352.71 1500.88 1356.41 1500.39 1360.88 1502.21 C 1366.11 1504.35 1370.27 1508.48 1372.45 1513.69 C 1378.18 1527.26 1372.67 1539.71 1359.07 1544.89 C 1348.49 1545.72 1339.78 1544.51 1334.63 1533.6 C 1331.84 1527.56 1331.63 1520.64 1334.05 1514.44 C 1336.88 1507.33 1341.24 1504.01 1348 1501.16 z"/>
<path transform="translate(0,0)" fill="rgb(255,255,255)" d="M 1349.73 1506.85 C 1370.74 1506.88 1371.69 1531.96 1355.72 1540.3 C 1337.15 1538.97 1335.54 1516.82 1349.73 1506.85 z"/>
<path transform="translate(0,0)" fill="rgb(73,116,32)" d="M 669.917 1399.8 C 681.949 1399.12 698.81 1399 710.785 1399.98 C 710.886 1405.27 711.028 1428.18 711.788 1431.96 C 706.13 1433.26 676.972 1433.08 670.572 1432.51 C 668.999 1430.16 669.617 1430.12 669.762 1426.57 C 676.123 1420.51 688.32 1428.23 694.899 1422.74 C 695.038 1419.21 695.425 1420.84 693.525 1417.7 C 688.75 1414.97 676.309 1415.93 669.732 1415.91 C 669.384 1410.56 669.722 1405.17 669.917 1399.8 z"/>
<path transform="translate(0,0)" fill="rgb(66,108,17)" d="M 706.214 1519.35 C 706.133 1514.8 706.381 1514.13 704.265 1510.31 C 697.067 1504.22 688.169 1512.08 682.466 1509.6 C 683.554 1503.44 692.408 1501.24 697.918 1499.98 C 716.007 1495.87 717.906 1539.17 712.224 1544.92 C 708.375 1544.76 706.509 1541.62 705.886 1541.68 C 700.159 1542.3 685.922 1548.95 681.874 1542.31 C 677.704 1535.48 679.105 1528.84 685.754 1524.99 C 691.78 1522.38 699.682 1520.85 706.214 1519.35 z"/>
<path transform="translate(0,0)" fill="rgb(255,255,255)" d="M 706.214 1519.35 C 705.183 1523.63 705.186 1521.85 706.485 1526.02 C 706.337 1536.44 699.254 1544.35 689.289 1538.8 C 686.81 1535.2 686.322 1534.7 688.057 1530.3 C 687.926 1526.16 688.684 1527.86 685.754 1524.99 C 691.78 1522.38 699.682 1520.85 706.214 1519.35 z"/>
<path transform="translate(0,0)" fill="rgb(73,116,32)" d="M 706.214 1519.35 C 705.183 1523.63 705.186 1521.85 706.485 1526.02 C 698.173 1525.94 695.793 1526.31 688.057 1530.3 C 687.926 1526.16 688.684 1527.86 685.754 1524.99 C 691.78 1522.38 699.682 1520.85 706.214 1519.35 z"/>
<path transform="translate(0,0)" fill="rgb(254,242,0)" d="M 776.784 255.272 C 792.032 263.275 807.818 297.828 810.593 314.619 C 805.744 308.952 800.787 303.38 795.722 297.906 C 793.818 295.857 793.164 294.83 790.551 294.899 C 786.771 299.04 787.268 315.833 786.886 322.399 C 774.796 303.397 773.888 276.993 776.784 255.272 z"/>
<path transform="translate(0,0)" fill="rgb(254,242,0)" d="M 884.139 269.58 L 886.384 270.925 C 896.429 290.831 891.559 317.854 885.369 338.148 C 884.291 328.124 882.815 316.023 877.545 307.357 C 872.396 312.44 864.912 324.956 862.48 326.054 C 856.823 313.671 877.469 279.606 884.139 269.58 z"/>
<path transform="translate(0,0)" fill="rgb(66,108,17)" d="M 1064.39 1518.56 C 1060.51 1502.04 1052.51 1509.04 1039.78 1509.79 C 1039.37 1503.97 1050.57 1500.93 1055.07 1500.54 C 1074.07 1498.88 1074.14 1533.68 1069.88 1544.33 C 1065.99 1545.3 1066.08 1545.34 1063.64 1541.66 C 1053.33 1541.86 1036.07 1554.23 1037.13 1532.32 C 1037.32 1528.58 1039.92 1526.65 1042.99 1525.09 C 1048 1522.5 1057.96 1520.67 1064.39 1518.56 z"/>
<path transform="translate(0,0)" fill="rgb(255,255,255)" d="M 1064.39 1518.56 C 1063.41 1522.67 1063.49 1522.86 1064.21 1527.1 C 1063.35 1535.77 1058.71 1541.25 1049.45 1540.56 C 1044.57 1537.81 1044.02 1536.05 1045.1 1530.37 C 1044.91 1526.5 1045.53 1528.22 1042.99 1525.09 C 1048 1522.5 1057.96 1520.67 1064.39 1518.56 z"/>
<path transform="translate(0,0)" fill="rgb(73,116,32)" d="M 1064.39 1518.56 C 1063.41 1522.67 1063.49 1522.86 1064.21 1527.1 C 1056.85 1525.16 1051.61 1526.53 1045.1 1530.37 C 1044.91 1526.5 1045.53 1528.22 1042.99 1525.09 C 1048 1522.5 1057.96 1520.67 1064.39 1518.56 z"/>
<path transform="translate(0,0)" fill="rgb(254,242,0)" d="M 851.322 260.713 C 851.808 260.739 852.936 261.213 853.463 261.404 C 857.533 274.995 844.547 312.68 836.613 325.238 C 836.028 317.929 838.196 300.34 833.042 296.013 L 830.983 296.677 C 824.407 303.222 819.257 308.285 812.111 314.281 C 819.953 292.778 832.787 274.26 851.322 260.713 z"/>
<path transform="translate(0,0)" fill="rgb(254,242,0)" d="M 971.965 333.914 L 972.974 334.691 C 977.227 344.383 953.932 382.582 944.058 387.914 C 941.782 385.365 947.388 369.22 946.937 362.278 C 940.846 364.09 925.484 373.026 918.988 376.446 C 933.713 356.249 949.307 344.21 971.965 333.914 z"/>
<path transform="translate(0,0)" fill="rgb(254,242,0)" d="M 605.218 420.393 C 626.566 419.446 650.638 426.432 668.653 437.953 C 661.898 437.854 643.534 434.844 639.017 440.032 C 639.15 443.448 639.273 442.542 641.727 445.86 C 645.909 449.777 651.952 454.568 654.149 459.496 L 653.086 460.351 C 641.556 457.377 608.173 433.905 604.156 422.482 L 605.218 420.393 z"/>
<path transform="translate(0,0)" fill="rgb(254,242,0)" d="M 944.452 309.109 C 946.69 309.109 945.607 308.93 947.624 310.057 C 947.896 311.845 947.921 313 947.042 314.628 C 938.238 330.937 919.161 350.887 901.987 357.665 C 905.615 352.495 909.179 346.756 912.622 341.415 C 914.303 337.761 915.877 335.544 913.499 332.025 C 908.207 330.027 895.578 335.264 888.227 336.894 C 903.46 321.748 924.166 314.464 944.452 309.109 z"/>
<path transform="translate(0,0)" fill="rgb(254,242,0)" d="M 744.344 268.57 C 754.257 274.637 767.368 320.39 761.658 328.485 C 758.966 325.925 754.612 315.931 752.238 311.622 C 749.601 308.425 748.847 306.558 744.847 308.481 C 741.349 313.065 738.937 322.355 736.918 328.239 C 731.573 312.185 733.255 281.63 744.344 268.57 z"/>
<path transform="translate(0,0)" fill="rgb(254,242,0)" d="M 649.468 465.136 C 650.92 465.15 650.098 464.996 651.821 466.004 C 649.799 472.075 638.144 475.252 638.96 484.273 C 642.873 488.038 659.166 487.132 666.282 487.63 C 653.578 493.532 640.852 495.894 627.091 497.662 C 617.151 498.577 607.252 498.048 597.272 497.769 C 608.233 482.547 631.049 469.106 649.468 465.136 z"/>
<path transform="translate(0,0)" fill="rgb(254,242,0)" d="M 678.296 300.828 C 691.724 300.881 730.517 320.781 731.988 331.387 C 726.412 331.71 712.802 324.482 706.713 326.111 L 705.998 328.311 C 709.131 337.383 713.774 345.196 718.396 353.606 C 714.827 351.428 711.485 348.901 708.417 346.061 C 698.333 336.783 678.967 315.155 678.296 300.828 z"/>
<path transform="translate(0,0)" fill="rgb(66,108,17)" d="M 1177.79 1512.11 C 1178.46 1516.58 1179.24 1537.28 1177.73 1542.04 C 1177.08 1544.1 1174.94 1544.96 1173.11 1545.62 L 1171.56 1544.8 C 1167.92 1536.16 1171.57 1500.03 1169.91 1488.52 C 1169.56 1486.09 1170.46 1484.68 1172 1483.2 C 1174.46 1482.88 1175.66 1482.42 1177.76 1483.66 C 1179.05 1489.42 1178.2 1499.78 1177.97 1506.06 C 1184.68 1503.63 1187.92 1499.38 1196.27 1500.99 C 1208.12 1503.27 1208.01 1534.52 1205.56 1543.24 C 1203.45 1545.12 1203.33 1545.62 1200.52 1545.86 C 1192.62 1537.38 1209.65 1492.68 1177.79 1512.11 z"/>
<path transform="translate(0,0)" fill="rgb(254,242,0)" d="M 607.493 529.464 C 630.267 516.393 646.968 511.682 672.72 510.425 C 666.812 513.931 651.439 520.476 651.011 526.356 C 652.932 531.121 656.278 533.057 659.708 536.986 L 651.29 540.466 C 645.128 537.016 626.724 540.683 607.493 529.464 z"/>
<path transform="translate(0,0)" fill="rgb(66,108,17)" d="M 885.748 1530.91 C 886.065 1531.9 886.382 1532.88 886.699 1533.87 C 895.179 1537.73 906.777 1534.27 914.006 1541.91 C 921.903 1563.48 867.825 1568.4 876.326 1545.41 C 885.872 1536.79 877.029 1540.01 879.199 1532.14 C 882.18 1534.18 880.613 1533.82 883.983 1533.54 C 884.507 1532.8 885.377 1531.68 885.748 1530.91 z"/>
<path transform="translate(0,0)" fill="rgb(255,255,255)" d="M 885.722 1542.02 C 891.849 1541.77 906.196 1540.49 907.186 1548.26 C 905.876 1551.31 904.179 1552.13 901.497 1554.12 C 894.609 1555.57 884.561 1556.57 881.662 1548.54 C 882.121 1545.15 883.3 1544.47 885.722 1542.02 z"/>
<path transform="translate(0,0)" fill="rgb(66,108,17)" d="M 879.199 1532.14 C 880.153 1530.49 882.179 1528.12 881.291 1526.25 C 876.771 1516.78 873.029 1506.51 886.535 1502.6 C 892.216 1500.95 913.25 1499.77 915.298 1506.38 C 913.587 1508.29 912.037 1508.44 909.557 1509.17 C 907.485 1515.52 912.154 1521.49 903.438 1526.27 C 897.224 1529.68 888.877 1525.7 885.748 1530.91 C 885.377 1531.68 884.507 1532.8 883.983 1533.54 C 880.613 1533.82 882.18 1534.18 879.199 1532.14 z"/>
<path transform="translate(0,0)" fill="rgb(255,255,255)" d="M 888.791 1507.71 C 893.016 1505.01 898.631 1506.26 901.309 1510.5 C 903.988 1514.74 902.709 1520.35 898.458 1523 C 894.235 1525.65 888.672 1524.38 886.011 1520.17 C 883.351 1515.96 884.593 1510.39 888.791 1507.71 z"/>
<path transform="translate(0,0)" fill="rgb(66,108,17)" d="M 1246.44 1508.14 C 1273.19 1479.86 1279.79 1530.29 1273.2 1544.01 C 1271.1 1545.47 1271.8 1545.29 1269.47 1545.94 C 1261.5 1541.74 1273.1 1516.2 1261.46 1507.91 C 1255.23 1506.39 1252.41 1508.66 1246.95 1511.82 C 1246.67 1517.68 1247.46 1541.86 1245.61 1544.82 L 1242.67 1545.36 C 1235.07 1540.94 1237.77 1508.3 1240.23 1501.14 L 1242.79 1501.17 C 1246.09 1503.33 1245.08 1503.04 1246.44 1508.14 z"/>
<path transform="translate(0,0)" fill="rgb(73,116,32)" d="M 1019.39 1534.89 C 1022.36 1543.93 1024.89 1536.24 1031.11 1539.62 C 1030.98 1542.7 1031.48 1541.39 1029.71 1543.77 C 1006.59 1554.47 1012 1522.52 1011.97 1510.96 C 1010.27 1508.23 1009.87 1508.99 1005.5 1507.92 L 1004.64 1505.97 L 1005.66 1503.64 C 1007.55 1502.99 1009.44 1502.31 1011.31 1501.61 C 1013.95 1497.94 1012.75 1495 1013.64 1490.42 C 1016.25 1487.62 1014.96 1488.45 1019.23 1487.74 C 1019.82 1491.55 1019.76 1499.63 1021.18 1501.64 C 1026.67 1502.65 1028.18 1501.04 1031.14 1503.47 C 1031.58 1506.95 1032.04 1505.55 1030.42 1508.01 C 1026.62 1509.1 1024.03 1508.83 1020.1 1508.79 C 1020.03 1515.48 1020.26 1528.77 1019.39 1534.89 z"/>
<path transform="translate(0,0)" fill="rgb(66,108,17)" d="M 1019.23 1487.74 C 1019.82 1491.55 1019.76 1499.63 1021.18 1501.64 C 1026.67 1502.65 1028.18 1501.04 1031.14 1503.47 C 1031.58 1506.95 1032.04 1505.55 1030.42 1508.01 C 1026.62 1509.1 1024.03 1508.83 1020.1 1508.79 C 1020.03 1515.48 1020.26 1528.77 1019.39 1534.89 C 1017.9 1527.94 1018.32 1495.63 1019.23 1487.74 z"/>
<path transform="translate(0,0)" fill="rgb(66,108,17)" d="M 832.351 1501.41 C 840.329 1500.74 846.863 1499.46 852.469 1506.7 C 849.297 1510.59 836.429 1505.15 829.824 1510.97 C 831.801 1521.1 855.953 1520.62 854.864 1534.82 C 852.311 1540.13 847.86 1542.8 842.595 1544.97 C 835.997 1545.26 830.685 1545.63 824.818 1542.12 C 823.242 1539.22 823.461 1540.72 824.14 1537.49 C 829.643 1536.24 834.211 1542.29 842.778 1539.58 C 845.264 1537.54 845.444 1537.67 846.481 1534.5 C 843.7 1523.21 805.674 1521.09 832.351 1501.41 z"/>
<path transform="translate(0,0)" fill="rgb(66,108,17)" d="M 979.877 1501.08 C 985.712 1500.85 997.779 1499.83 997.33 1508.52 C 990.24 1510.72 990.312 1504.15 977.078 1509.24 C 976.729 1510.08 976.38 1510.92 976.031 1511.76 C 982.213 1520.84 1005.6 1523.65 997.459 1538.89 C 995.019 1543.45 990.926 1544.07 986.118 1545.36 C 980.38 1545.32 972.383 1544.94 969.178 1539.67 L 969.998 1537.56 C 975.81 1536.13 980.369 1542.92 988.811 1539.69 C 1002.17 1527.02 963.702 1523.88 968.865 1510.6 C 970.299 1506.91 976.312 1502.66 979.877 1501.08 z"/>
<path transform="translate(0,0)" fill="rgb(66,108,17)" d="M 1141.06 1501.25 C 1147.07 1500.62 1158.87 1500.34 1161.01 1507.88 L 1160.11 1509.39 C 1154.66 1511.19 1148.23 1505.41 1143.81 1507.18 C 1130.46 1512.55 1131.48 1546.24 1153.46 1538.57 C 1155.78 1536.62 1156.21 1535.92 1159.25 1535.73 L 1160.64 1537.17 L 1160.13 1539.58 C 1155.42 1544.94 1146.33 1547.24 1140.17 1544.57 C 1120.32 1535.99 1123.66 1510.45 1141.06 1501.25 z"/>
<path transform="translate(0,0)" fill="rgb(73,116,32)" d="M 725.934 1500.3 C 731.713 1501.85 730.192 1501.45 733.235 1506.73 L 734.97 1506.93 C 736.324 1505.7 737.698 1504.49 739.093 1503.31 C 742.188 1500.72 742.965 1500.53 746.598 1500.84 C 749.678 1503.3 748.881 1501.81 749.824 1504.98 C 745.081 1511.7 734.003 1506.63 733.138 1521.75 C 733.181 1527.39 734.604 1540.36 732.063 1544.66 C 728.169 1544.78 728.744 1545.34 725.818 1543.71 C 724.87 1535.17 725.377 1509.22 725.934 1500.3 z"/>
<path transform="translate(0,0)" fill="rgb(66,108,17)" d="M 1223.69 1500.43 L 1225.65 1501.63 C 1227.71 1506.36 1226.83 1535.1 1226.5 1541.97 C 1226.37 1544.87 1225.09 1544.91 1222.67 1546.46 C 1221.44 1545.84 1220.17 1545.07 1218.97 1544.39 C 1217.1 1539.11 1217.06 1506.01 1218.59 1502.17 L 1223.69 1500.43 z"/>
<path transform="translate(0,0)" fill="rgb(66,108,17)" d="M 1096.72 1509.02 C 1083.81 1520.41 1095.43 1535.9 1086.93 1544.81 C 1083.83 1544.98 1085.04 1545.49 1083.02 1543.68 C 1082.45 1536.07 1079.86 1504.77 1085.97 1501.19 L 1088.32 1501.93 C 1089.8 1504.03 1089.89 1504.94 1090.33 1507.38 L 1092.14 1507.58 L 1096.72 1509.02 z"/>
<path transform="translate(0,0)" fill="rgb(66,108,17)" d="M 805.854 1500.83 C 810.153 1501.46 810.357 1500.78 813.196 1503.11 C 814.287 1513.17 813.61 1533.94 813.545 1544.82 C 809.925 1544.92 808.096 1545.42 806.028 1543.5 C 804.836 1534.11 805.554 1511.23 805.854 1500.83 z"/>
<path transform="translate(0,0)" fill="rgb(66,108,17)" d="M 769.466 1379.3 C 772.274 1378.14 775.488 1378.59 777.872 1380.48 C 780.256 1382.36 781.438 1385.38 780.963 1388.38 C 780.488 1391.38 778.43 1393.89 775.581 1394.94 C 771.287 1396.53 766.513 1394.39 764.846 1390.12 C 763.179 1385.86 765.234 1381.05 769.466 1379.3 z"/>
<path transform="translate(0,0)" fill="rgb(66,108,17)" d="M 1052.74 1374.8 C 1056.68 1374.89 1058.95 1374.38 1061.35 1377.61 C 1061.04 1384.1 1052.23 1389.76 1047.01 1392.69 C 1044.01 1393.35 1043.78 1393.64 1040.76 1392.81 L 1039.97 1391.38 C 1043.01 1384.92 1048.48 1384.45 1052.74 1374.8 z"/>
<path transform="translate(0,0)" fill="rgb(66,108,17)" d="M 941.391 1391.55 C 937.516 1393.36 938.271 1395.49 932.654 1395.46 C 928.555 1393.75 930.118 1395.08 927.765 1391.36 C 927.39 1387.61 927.357 1387.48 928.905 1384.15 C 934.923 1379.12 936.924 1382.21 941.125 1387.1 C 940.707 1388.57 940.801 1390.14 941.391 1391.55 z"/>
<path transform="translate(0,0)" fill="rgb(66,108,17)" d="M 1364.27 1449.36 C 1367.81 1448.54 1371.36 1450.68 1372.29 1454.2 C 1373.23 1457.71 1371.21 1461.33 1367.73 1462.38 C 1365.37 1463.1 1362.81 1462.47 1361.05 1460.74 C 1359.29 1459.02 1358.62 1456.47 1359.29 1454.1 C 1359.95 1451.73 1361.86 1449.91 1364.27 1449.36 z"/>
<path transform="translate(0,0)" fill="rgb(66,108,17)" d="M 941.125 1387.1 C 942.024 1383.93 945.073 1381.88 948.341 1382.24 C 951.609 1382.6 954.143 1385.26 954.339 1388.54 C 954.536 1391.82 952.337 1394.76 949.135 1395.51 C 945.933 1396.25 942.661 1394.58 941.391 1391.55 C 940.801 1390.14 940.707 1388.57 941.125 1387.1 z"/>
<path transform="translate(0,0)" fill="rgb(66,108,17)" d="M 840.216 1448.53 C 851.03 1450.18 848.948 1457.36 842.835 1463.53 C 841.104 1463.52 838.766 1462.66 837.656 1461.33 C 832.762 1455.49 836.064 1452.13 840.216 1448.53 z"/>
<path transform="translate(0,0)" fill="rgb(66,108,17)" d="M 1371.03 1437.36 C 1374.38 1435.85 1378.32 1437.34 1379.82 1440.7 C 1381.33 1444.05 1379.82 1447.98 1376.47 1449.48 C 1373.12 1450.97 1369.2 1449.47 1367.7 1446.13 C 1366.2 1442.79 1367.69 1438.86 1371.03 1437.36 z"/>
<path transform="translate(0,0)" fill="rgb(66,108,17)" d="M 1355.48 1436.45 C 1365.6 1436.63 1366.19 1444.1 1358.96 1450.62 C 1354.54 1449.3 1352.39 1448.72 1350.49 1444.49 C 1350.85 1440.7 1352.76 1439.37 1355.48 1436.45 z"/>
<path transform="translate(0,0)" fill="rgb(66,108,17)" d="M 848.139 1436.92 C 851.601 1436.08 855.102 1438.16 856.002 1441.61 C 856.903 1445.06 854.87 1448.59 851.436 1449.55 C 849.167 1450.18 846.734 1449.54 845.071 1447.87 C 843.407 1446.2 842.771 1443.77 843.407 1441.5 C 844.042 1439.23 845.851 1437.48 848.139 1436.92 z"/>
<path transform="translate(0,0)" fill="rgb(66,108,17)" d="M 830.52 1437.57 C 832.644 1436.6 835.125 1436.86 836.997 1438.26 C 838.869 1439.65 839.836 1441.95 839.521 1444.26 C 839.206 1446.57 837.658 1448.53 835.482 1449.37 C 832.251 1450.62 828.613 1449.07 827.271 1445.88 C 825.929 1442.68 827.368 1439 830.52 1437.57 z"/>
<path transform="translate(0,0)" fill="rgb(66,108,17)" d="M 1220.01 1483.28 C 1222.91 1482.07 1226.23 1483.41 1227.48 1486.29 C 1228.73 1489.17 1227.44 1492.52 1224.58 1493.81 C 1222.69 1494.66 1220.49 1494.43 1218.82 1493.2 C 1217.15 1491.98 1216.27 1489.95 1216.52 1487.89 C 1216.77 1485.84 1218.1 1484.08 1220.01 1483.28 z"/>
<path transform="translate(0,0)" fill="rgb(66,108,17)" d="M 807.713 1483.42 C 810.501 1482.46 813.544 1483.9 814.563 1486.67 C 815.583 1489.44 814.205 1492.51 811.462 1493.59 C 809.633 1494.31 807.559 1493.98 806.04 1492.74 C 804.521 1491.49 803.795 1489.52 804.142 1487.59 C 804.489 1485.65 805.856 1484.06 807.713 1483.42 z"/>
<path transform="translate(0,0)" fill="rgb(66,108,17)" d="M 1092.14 1507.58 C 1096.36 1502.52 1099.14 1499.27 1106.01 1502.35 L 1107.07 1504.13 C 1105.88 1507.5 1106.86 1506.15 1104 1508.31 L 1096.72 1509.02 L 1092.14 1507.58 z"/>
<path transform="translate(0,0)" fill="rgb(100,157,52)" d="M 1390.61 1097.36 C 1390.11 1100.44 1389.11 1101.23 1387.14 1103.64 C 1382.37 1108.47 1377.34 1113.73 1372.41 1118.35 L 1370.7 1114.88 C 1376.87 1108.78 1383.97 1102.99 1390.61 1097.36 z"/>
<path transform="translate(0,0)" fill="rgb(100,157,52)" d="M 1019.73 972.668 C 1021.56 967.947 1022.9 963.78 1025.67 959.533 L 1027.99 959.553 L 1027.66 957.425 C 1029.36 961.314 1025.47 971.401 1024.12 975.614 L 1019.73 972.668 z"/>
<path transform="translate(0,0)" fill="rgb(194,197,180)" d="M 1413.73 1079.18 C 1405.61 1087.87 1396.25 1095.97 1387.14 1103.64 C 1389.11 1101.23 1390.11 1100.44 1390.61 1097.36 C 1395.89 1091.58 1407.01 1083.89 1413.73 1079.18 z"/>
<path transform="translate(0,0)" fill="rgb(168,184,132)" d="M 778.573 1076.59 C 783.244 1081.64 785.923 1084.45 789.744 1090.11 L 787.668 1094.07 C 784.579 1088.34 781.575 1082.38 778.573 1076.59 z"/>
<path transform="translate(0,0)" fill="rgb(168,184,132)" d="M 785.237 947.016 C 789.282 950.42 791.676 952.391 795.241 956.324 L 793.974 959.134 C 791.396 956.114 787.656 950.468 785.237 947.016 z"/>
</svg>